# xmcd
#
# Track frame offsets:
# 150
# 2626
# 20381
# 38032
# 53321
# 63895
# 92158
# 108759
# 146499
# 164991
# 187629
# 209296
# 233729
#
# Disc length: 3444 seconds
#
#
# Revision: 0
# Processed by: cddbd v1.5.2PL0 Copyright (c) Steve Scherf et al.
# Submitted via: FreeRIP 2.944 
#
DISCID=990d720d
DTITLE=Companhias de Santos Reis - A Caminho da Estrela
DYEAR=2011
DGENRE=Folklore
TTITLE0=Abertura Para Santo Reis
TTITLE1=Saída da Bandeira (1)
TTITLE2=Meus Três Reis Aqui Chegaram (2)
TTITLE3=Vinte e Cinco de Dezembro (3)
TTITLE4=Boa Noite Meu Senhor (4)
TTITLE5=Vinte e Cinco de Dezembro, Um Dia Especial (5)
TTITLE6=Ao Chegar Nesse Lugar (6)
TTITLE7=O Meu Maringo Falou (6)
TTITLE8=Meia Noite Já É Dada (3)
TTITLE9=Vou Fazer A Retirada (4)
TTITLE10=Folião Está Despedindo (1)
TTITLE11=Vamos Dar A Despedida (5)
TTITLE12=A Despedida (3)
EXTD=Cidade de Campinas, SP Brasil\n(1) Companhia Estrela Guia\n(2) Companhia Voz do Oriente\n(3) Companhia Mensageiros da Paz\n(4) Companhia São José Operário\n(5) Grupo Folclórico Campinense\n(6) Companhia Azes do Brasil
EXTT0=
EXTT1=
EXTT2=
EXTT3=
EXTT4=
EXTT5=
EXTT6=
EXTT7=
EXTT8=
EXTT9=
EXTT10=
EXTT11=
EXTT12=
PLAYORDER=
